<svg xmlns="http://www.w3.org/2000/svg" viewBox="0 0 42 42"><defs><style>.cls-1,.cls-3{fill:none;}.cls-1{stroke:#000;stroke-miterlimit:10;}.cls-2{fill:#0069ff;}.cls-3{stroke:#fff;stroke-width:1.49px;}.cls-4{font-size:16px;fill:#fff;font-family:ProximaNova-Extrabld, Proxima Nova;}.cls-5{letter-spacing:0em;}.cls-6{letter-spacing:-0.01em;}.cls-7{letter-spacing:0em;}.cls-8{letter-spacing:0em;}.cls-9{letter-spacing:0em;}.cls-10{letter-spacing:0em;}.cls-11{letter-spacing:0em;}.cls-12{letter-spacing:0em;}.cls-13{letter-spacing:0em;}.cls-14{letter-spacing:-0.01em;}.cls-15{letter-spacing:-0.02em;}.cls-16{letter-spacing:0em;}.cls-17{letter-spacing:0em;}.cls-18{letter-spacing:0em;}.cls-19{letter-spacing:0em;}.cls-20{letter-spacing:-0.08em;}.cls-21{letter-spacing:0em;}.cls-22{letter-spacing:0em;}.cls-23{letter-spacing:0em;}.cls-24{letter-spacing:0em;}.cls-25{letter-spacing:0em;}.cls-26{letter-spacing:0em;}.cls-27{letter-spacing:0em;}.cls-28{letter-spacing:-0.01em;}.cls-29{letter-spacing:0em;}</style></defs><title>digitalocean-product-icon-API</title><g id="Layer_2" data-name="Layer 2"><rect class="cls-1" x="-692" y="-394" width="1280" height="720"/></g><g id="Layer_1" data-name="Layer 1"><circle class="cls-2" cx="21" cy="21" r="20.79"/><path class="cls-3" d="M32.8,22.44V19.65l-3.09-1a9.47,9.47,0,0,0-.89-2.1l1.51-2.9-2-2-2.88,1.45h0a9.45,9.45,0,0,0-2-.88h0l-1-3.07H19.59l-1,3.11a9.39,9.39,0,0,0-2.09.89h0l-2.89-1.5-2,2,1.5,2.89h0a8.91,8.91,0,0,0-.88,2L9.2,19.65v2.83l3.1,1h0a9.07,9.07,0,0,0,.82,2h0l-1.46,2.87,2,2,2.9-1.51a9,9,0,0,0,2,.89l1,3.11H22.4l1-3.08h0a8.65,8.65,0,0,0,2-.82h0l2.89,1.51,2-2.06L28.8,25.49a9.48,9.48,0,0,0,.88-2.07Zm-11.8,2A3.45,3.45,0,1,1,24.44,21v0A3.44,3.44,0,0,1,21,24.42Z"/><text class="cls-4" transform="translate(-14.56 -220.02)"><tspan class="cls-5">D</tspan><tspan class="cls-6" x="11.57" y="0">a</tspan><tspan class="cls-7" x="20.25" y="0">t</tspan><tspan class="cls-8" x="26.04" y="0">a</tspan><tspan class="cls-9" x="34.79" y="0">b</tspan><tspan class="cls-10" x="44.22" y="0">a</tspan><tspan class="cls-11" x="52.99" y="0">s</tspan><tspan class="cls-12" x="60.69" y="0">e</tspan><tspan x="69.43" y="0">s</tspan><tspan class="cls-13" x="0" y="185">D</tspan><tspan class="cls-14" x="11.67" y="185">e</tspan><tspan class="cls-15" x="20.22" y="185">v</tspan><tspan class="cls-16" x="28.34" y="185">e</tspan><tspan class="cls-17" x="37.12" y="185">l</tspan><tspan class="cls-18" x="41.34" y="185">o</tspan><tspan class="cls-19" x="50.52" y="185">p</tspan><tspan x="59.98" y="185">er </tspan><tspan class="cls-20" x="78.85" y="185">T</tspan><tspan class="cls-9" x="87.06" y="185">o</tspan><tspan class="cls-21" x="96.26" y="185">o</tspan><tspan class="cls-22" x="105.45" y="185">l</tspan><tspan x="109.69" y="185">s</tspan><tspan class="cls-23" x="0" y="370">M</tspan><tspan class="cls-24" x="14.09" y="370">a</tspan><tspan class="cls-25" x="22.83" y="370">n</tspan><tspan class="cls-26" x="32.27" y="370">a</tspan><tspan class="cls-27" x="41.05" y="370">g</tspan><tspan x="50.45" y="370">e</tspan><tspan class="cls-12" x="59.22" y="370">m</tspan><tspan x="73.19" y="370">e</tspan><tspan class="cls-28" x="81.96" y="370">n</tspan><tspan x="91.34" y="370">t </tspan><tspan class="cls-20" x="101.2" y="370">T</tspan><tspan class="cls-9" x="109.41" y="370">o</tspan><tspan class="cls-21" x="118.61" y="370">o</tspan><tspan class="cls-29" x="127.8" y="370">l</tspan><tspan x="132.04" y="370">s</tspan></text></g></svg>