<svg xmlns="http://www.w3.org/2000/svg" viewBox="0 0 42 42"><defs><style>.cls-1,.cls-3{fill:none;}.cls-1{stroke:#000;stroke-miterlimit:10;}.cls-2{fill:#0069ff;}.cls-3{stroke:#fff;stroke-width:1.49px;}.cls-4,.cls-5{fill:#fff;}.cls-5{font-size:16px;font-family:ProximaNova-Extrabld, Proxima Nova;}.cls-6{letter-spacing:0em;}.cls-7{letter-spacing:-0.01em;}.cls-8{letter-spacing:0em;}.cls-9{letter-spacing:0em;}.cls-10{letter-spacing:0em;}.cls-11{letter-spacing:0em;}.cls-12{letter-spacing:0em;}.cls-13{letter-spacing:0em;}.cls-14{letter-spacing:0em;}.cls-15{letter-spacing:-0.01em;}.cls-16{letter-spacing:-0.02em;}.cls-17{letter-spacing:0em;}.cls-18{letter-spacing:0em;}.cls-19{letter-spacing:0em;}.cls-20{letter-spacing:0em;}.cls-21{letter-spacing:-0.08em;}.cls-22{letter-spacing:0em;}.cls-23{letter-spacing:0em;}.cls-24{letter-spacing:0em;}.cls-25{letter-spacing:0em;}.cls-26{letter-spacing:0em;}.cls-27{letter-spacing:0em;}.cls-28{letter-spacing:0em;}.cls-29{letter-spacing:-0.01em;}.cls-30{letter-spacing:0em;}</style></defs><title>digitalocean-product-icon-client-libraries</title><g id="Layer_2" data-name="Layer 2"><rect class="cls-1" x="-787" y="-394" width="1280" height="720"/></g><g id="Layer_1" data-name="Layer 1"><circle class="cls-2" cx="21" cy="21" r="20.79"/><polyline class="cls-3" points="14.53 27.47 11.04 27.47 11.04 11.04 27.47 11.04 27.47 14.53"/><rect class="cls-3" x="14.53" y="14.53" width="16.43" height="16.43"/><path class="cls-4" d="M23.77,28.94H21.68l-.5-1.61a4.47,4.47,0,0,1-.6-.25l-1.49.78-1.48-1.49.78-1.48a5.89,5.89,0,0,1-.24-.58l-1.62-.49V21.71l1.61-.49a3.16,3.16,0,0,1,.25-.6l-.79-1.49,1.48-1.48,1.49.77c.2-.1.41-.18.62-.26l.49-1.61h2.1l.49,1.61a4.88,4.88,0,0,1,.64.23l1.49-.78,1.48,1.49-.78,1.48a4.19,4.19,0,0,1,.26.63l1.6.5V23.8l-1.61.49a6.57,6.57,0,0,1-.26.61l.77,1.49-1.49,1.48-1.48-.78a6.07,6.07,0,0,1-.59.24Zm-1.36-1h.64l.44-1.41.27-.08a3.41,3.41,0,0,0,.86-.36l.22-.12.23.11,1.11.57.45-.45L26,24.91l.13-.23a3.67,3.67,0,0,0,.38-.89l.07-.26L28,23.09v-.64L26.54,22l-.07-.26a3.71,3.71,0,0,0-.37-.9L26,20.6l.68-1.31-.45-.46-1.32.7-.24-.13a3.93,3.93,0,0,0-.87-.37L23.52,19l-.09-.26-.38-1.18h-.61L22,18.94l-.25.07a3.58,3.58,0,0,0-.9.38l-.23.12-.23-.1-1.12-.57-.45.45.66,1.31-.11.25a4,4,0,0,0-.37.88l-.06.26-1.43.45v.64l1.42.45.08.26a4.26,4.26,0,0,0,.36.85l.12.23-.1.23-.58,1.1.46.46L20.58,26l.24.13a3.81,3.81,0,0,0,.88.37l.26.07Zm.32-3.06a2.17,2.17,0,1,1,2.18-2.16h0a2.17,2.17,0,0,1-2.17,2.17h0Zm0-3.34a1.18,1.18,0,1,0,1.19,1.19,1.18,1.18,0,0,0-1.19-1.19h0Z"/><text class="cls-5" transform="translate(-109.56 -220.02)"><tspan class="cls-6">D</tspan><tspan class="cls-7" x="11.57" y="0">a</tspan><tspan class="cls-8" x="20.25" y="0">t</tspan><tspan class="cls-9" x="26.04" y="0">a</tspan><tspan class="cls-10" x="34.79" y="0">b</tspan><tspan class="cls-11" x="44.22" y="0">a</tspan><tspan class="cls-12" x="52.99" y="0">s</tspan><tspan class="cls-13" x="60.69" y="0">e</tspan><tspan x="69.43" y="0">s</tspan><tspan class="cls-14" x="0" y="185">D</tspan><tspan class="cls-15" x="11.67" y="185">e</tspan><tspan class="cls-16" x="20.22" y="185">v</tspan><tspan class="cls-17" x="28.34" y="185">e</tspan><tspan class="cls-18" x="37.12" y="185">l</tspan><tspan class="cls-19" x="41.34" y="185">o</tspan><tspan class="cls-20" x="50.52" y="185">p</tspan><tspan x="59.98" y="185">er </tspan><tspan class="cls-21" x="78.85" y="185">T</tspan><tspan class="cls-10" x="87.06" y="185">o</tspan><tspan class="cls-22" x="96.26" y="185">o</tspan><tspan class="cls-23" x="105.45" y="185">l</tspan><tspan x="109.69" y="185">s</tspan><tspan class="cls-24" x="0" y="370">M</tspan><tspan class="cls-25" x="14.09" y="370">a</tspan><tspan class="cls-26" x="22.83" y="370">n</tspan><tspan class="cls-27" x="32.27" y="370">a</tspan><tspan class="cls-28" x="41.05" y="370">g</tspan><tspan x="50.45" y="370">e</tspan><tspan class="cls-13" x="59.22" y="370">m</tspan><tspan x="73.19" y="370">e</tspan><tspan class="cls-29" x="81.96" y="370">n</tspan><tspan x="91.34" y="370">t </tspan><tspan class="cls-21" x="101.2" y="370">T</tspan><tspan class="cls-10" x="109.41" y="370">o</tspan><tspan class="cls-22" x="118.61" y="370">o</tspan><tspan class="cls-30" x="127.8" y="370">l</tspan><tspan x="132.04" y="370">s</tspan></text></g></svg>