<svg xmlns="http://www.w3.org/2000/svg" viewBox="0 0 42 42"><defs><style>.cls-1,.cls-3{fill:none;}.cls-1{stroke:#000;stroke-miterlimit:10;}.cls-2{fill:#0069ff;}.cls-3{stroke:#fff;stroke-width:1.49px;}.cls-4{fill:#fff;}</style></defs><title>digitalocean-product-icon-cloud-firewalls</title><g id="Layer_2" data-name="Layer 2"><rect class="cls-1" x="-64" y="-580" width="1280" height="720"/></g><g id="Layer_1" data-name="Layer 1"><circle class="cls-2" cx="21" cy="21" r="20.79"/><path class="cls-3" d="M21,8.63s-4,2.89-4,5.84a4,4,0,0,0,4,3.92h0a4,4,0,0,0,4-3.9v0C25.07,11.61,21,8.63,21,8.63Z"/><rect class="cls-3" x="10.45" y="21.56" width="21.1" height="8.28"/><line class="cls-3" x1="31.55" y1="25.69" x2="10.45" y2="25.69"/><line class="cls-3" x1="21" y1="25.69" x2="21" y2="21.56"/><line class="cls-3" x1="26.32" y1="25.69" x2="26.32" y2="29.83"/><line class="cls-3" x1="15.68" y1="25.69" x2="15.68" y2="29.83"/><path class="cls-4" d="M21,13.51s-1.33,1-1.33,1.92a1.33,1.33,0,0,0,2.66,0C22.33,14.49,21,13.51,21,13.51Z"/></g></svg>