<svg xmlns="http://www.w3.org/2000/svg" viewBox="0 0 42 42"><defs><style>.cls-1,.cls-3{fill:none;}.cls-1{stroke:#000;stroke-miterlimit:10;}.cls-2{fill:#0069ff;}.cls-3{stroke:#fff;stroke-width:1.49px;}</style></defs><title>digitalocean-product-icon-kubernetes</title><g id="Layer_2" data-name="Layer 2"><rect class="cls-1" x="-350" y="-207" width="1280" height="720"/></g><g id="Layer_1" data-name="Layer 1"><circle class="cls-2" cx="21" cy="21" r="20.79"/><path class="cls-3" d="M31.15,21.18A10.19,10.19,0,1,1,21,11,10.19,10.19,0,0,1,31.15,21.18Zm-6.51,0A3.64,3.64,0,1,1,21,17.56,3.64,3.64,0,0,1,24.64,21.2ZM21,17.47v0ZM10.1,12.33,18,18.79Zm21.79,0L24,18.79ZM34.72,24.2,24.75,22Zm-27.44,0,10-2.18Zm19.93,9.62-4.53-9.43Zm-12.41,0,4.45-9.43Z"/></g></svg>