<svg xmlns="http://www.w3.org/2000/svg" viewBox="0 0 42 42"><defs><style>.cls-1,.cls-3{fill:none;}.cls-1{stroke:#000;stroke-miterlimit:10;}.cls-2{fill:#0069ff;}.cls-3{stroke:#fff;stroke-width:1.49px;}.cls-4{fill:#fff;}</style></defs><title>digitalocean-product-icon-managed-redis copy</title><g id="Layer_2" data-name="Layer 2"><rect class="cls-1" x="-978" y="-207" width="1280" height="720"/></g><g id="Layer_1" data-name="Layer 1"><circle class="cls-2" cx="21" cy="21" r="20.79"/><path class="cls-3" d="M11.59,23.14v4.34c0,1.43,4,2.59,8.89,2.59"/><path class="cls-3" d="M29.35,23.14V18.85"/><path class="cls-3" d="M11.59,23.14V18.85"/><path class="cls-3" d="M29.35,14.51c0-1.42-4-2.58-8.87-2.58s-8.89,1.16-8.89,2.58v4.34c0,1.43,4,2.59,8.89,2.59s8.87-1.16,8.87-2.59Z"/><ellipse class="cls-3" cx="20.48" cy="14.51" rx="8.88" ry="2.58"/><path class="cls-3" d="M29.35,14.51c0-1.42-4-2.58-8.87-2.58s-8.89,1.16-8.89,2.58v4.34c0,1.43,4,2.59,8.89,2.59s8.87-1.16,8.87-2.59Z"/><path class="cls-3" d="M15.83,16.71c-2.54-.45-4.23-1.27-4.23-2.2,0-1.43,4-2.58,8.88-2.58s8.87,1.15,8.87,2.58-4,2.58-8.87,2.58a27,27,0,0,1-4.65-.38"/><path class="cls-3" d="M11.59,23.14v4.34c0,1.43,4,2.59,8.89,2.59s8.87-1.16,8.87-2.59V23.14"/><path class="cls-3" d="M29.35,23.14c0,1.43-4,2.58-8.87,2.58a26,26,0,0,1-4.65-.38"/><path class="cls-3" d="M15.83,25.34c-2.54-.45-4.23-1.27-4.23-2.2"/><path class="cls-3" d="M29.35,27.49c0,1.43-4,2.58-8.87,2.58a27,27,0,0,1-4.65-.38"/><path class="cls-3" d="M15.83,29.69c-2.54-.45-4.23-1.27-4.23-2.2"/><path class="cls-4" d="M30.41,26.2v0Z"/></g></svg>