<svg xmlns="http://www.w3.org/2000/svg" viewBox="0 0 42 42"><defs><style>.cls-1,.cls-3{fill:none;}.cls-1{stroke:#000;stroke-miterlimit:10;}.cls-2{fill:#0069ff;}.cls-3{stroke:#fff;stroke-width:1.49px;}</style></defs><title>digitalocean-product-icon-monitoring</title><g id="Layer_2" data-name="Layer 2"><rect class="cls-1" x="-692" y="-580" width="1280" height="720"/></g><g id="Layer_1" data-name="Layer 1"><circle class="cls-2" cx="21" cy="21" r="20.79"/><path class="cls-3" d="M29.6,14.92v12.7a1.5,1.5,0,0,1-1.51,1.51H14.79"/><path class="cls-3" d="M12.4,26.74V14.38a1.51,1.51,0,0,1,1.51-1.51H27.47"/><line class="cls-3" x1="29.57" y1="21" x2="12.36" y2="21"/><path class="cls-3" d="M13.5,27l5-9.82a.33.33,0,0,1,.45-.14.32.32,0,0,1,.14.14l3.74,7.61a.33.33,0,0,0,.45.13.29.29,0,0,0,.14-.13l5.09-9.88"/><circle class="cls-3" cx="12.4" cy="29.13" r="2.39"/><circle class="cls-3" cx="29.6" cy="12.87" r="2.39"/></g></svg>