<svg xmlns="http://www.w3.org/2000/svg" viewBox="0 0 42 42"><defs><style>.cls-1{fill:none;stroke:#000;stroke-miterlimit:10;}.cls-2{fill:#0069ff;}.cls-3{fill:#fff;}</style></defs><title>digitalocean-product-icon-projects</title><g id="Layer_2" data-name="Layer 2"><rect class="cls-1" x="-787" y="-580" width="1280" height="720"/></g><g id="Layer_1" data-name="Layer 1"><circle class="cls-2" cx="21" cy="21" r="20.79"/><path class="cls-3" d="M28.45,12.75H25.76A2.79,2.79,0,0,0,23,10.41h0a2.26,2.26,0,0,0,.27-1h0a2.27,2.27,0,0,0-4.53,0,2.39,2.39,0,0,0,.27,1h0a2.79,2.79,0,0,0-2.75,2.34h-2.7A1.68,1.68,0,0,0,12,14.52V31a1.68,1.68,0,0,0,1.6,1.74H28.45A1.68,1.68,0,0,0,30,31V14.5A1.68,1.68,0,0,0,28.45,12.75ZM20,9.37a1,1,0,0,1,2.09,0h0a1,1,0,0,1-1,1H21A1,1,0,0,1,20,9.37Zm-1,2.26h4a1.57,1.57,0,0,1,1.51,1.12h-7A1.57,1.57,0,0,1,19,11.63ZM28.82,31c0,.29-.17.53-.37.53H13.56c-.2,0-.38-.24-.38-.53V14.5c0-.28.18-.53.38-.53H28.45c.2,0,.37.25.37.53Z"/><rect class="cls-3" x="19.02" y="18.88" width="6.77" height="1.22"/><rect class="cls-3" x="19.02" y="22.18" width="6.77" height="1.22"/><rect class="cls-3" x="19.02" y="25.49" width="6.77" height="1.22"/><rect class="cls-3" x="16.21" y="18.88" width="1.18" height="1.22"/><rect class="cls-3" x="16.21" y="22.18" width="1.18" height="1.22"/><rect class="cls-3" x="16.21" y="25.49" width="1.18" height="1.22"/></g></svg>