<svg xmlns="http://www.w3.org/2000/svg" viewBox="0 0 42 42"><defs><style>.cls-1{fill:none;stroke:#000;stroke-miterlimit:10;}.cls-2{font-size:16px;font-family:ProximaNova-Extrabld, Proxima Nova;}.cls-2,.cls-20{fill:#fff;}.cls-3{letter-spacing:0em;}.cls-4{letter-spacing:0em;}.cls-5{letter-spacing:0em;}.cls-6{letter-spacing:0em;}.cls-7{letter-spacing:0em;}.cls-8{letter-spacing:-0.01em;}.cls-9{letter-spacing:0em;}.cls-10{letter-spacing:-0.01em;}.cls-11{letter-spacing:0em;}.cls-12{letter-spacing:0em;}.cls-13{letter-spacing:0.02em;}.cls-14{letter-spacing:-0.01em;}.cls-15{letter-spacing:-0.01em;}.cls-16{letter-spacing:0em;}.cls-17{letter-spacing:0em;}.cls-18{letter-spacing:0em;}.cls-19{fill:#0069ff;}</style></defs><title>digitalocean-product-icon-spaces-object-storage</title><g id="Layer_2" data-name="Layer 2"><rect class="cls-1" x="-64" y="-394" width="1280" height="720"/></g><g id="Layer_1" data-name="Layer 1"><text class="cls-2" transform="translate(-14.42 -220.02)"><tspan class="cls-3">C</tspan><tspan class="cls-4" x="11.1" y="0">o</tspan><tspan class="cls-5" x="20.27" y="0">m</tspan><tspan class="cls-6" x="34.22" y="0">p</tspan><tspan class="cls-7" x="43.65" y="0">u</tspan><tspan x="53.15" y="0">te</tspan><tspan class="cls-8" x="0" y="186">S</tspan><tspan x="9.58" y="186">t</tspan><tspan class="cls-9" x="15.34" y="186">o</tspan><tspan class="cls-10" x="24.52" y="186">r</tspan><tspan class="cls-11" x="30.36" y="186">a</tspan><tspan class="cls-9" x="39.14" y="186">g</tspan><tspan x="48.54" y="186">e</tspan><tspan class="cls-12" x="0" y="372">N</tspan><tspan x="11.87" y="372">e</tspan><tspan class="cls-13" x="20.64" y="372">t</tspan><tspan class="cls-14" x="26.66" y="372">w</tspan><tspan class="cls-9" x="39.13" y="372">o</tspan><tspan class="cls-15" x="48.31" y="372">r</tspan><tspan class="cls-16" x="54.15" y="372">k</tspan><tspan class="cls-17" x="62.86" y="372">i</tspan><tspan class="cls-18" x="67.05" y="372">n</tspan><tspan x="76.53" y="372">g</tspan></text><circle class="cls-19" cx="21" cy="21" r="20.79"/><path class="cls-20" d="M12.7,13.49a1.22,1.22,0,0,0,.66-.2,1,1,0,0,0,.33-.68,1.22,1.22,0,0,0-.19-.69.88.88,0,0,0-.69-.33h0a1,1,0,0,0-1,.86,1.16,1.16,0,0,0,.21.68A.91.91,0,0,0,12.7,13.49Zm-2.6,3.89a1,1,0,0,0,1-.87,1.26,1.26,0,0,0-.2-.68.85.85,0,0,0-.69-.34h-.06a1,1,0,0,0-.95.87,1.12,1.12,0,0,0,.21.68,1.09,1.09,0,0,0,.67.34ZM10.17,21a1.26,1.26,0,0,0-.2-.68A.9.9,0,0,0,9.28,20H9.22a1,1,0,0,0-.62.21.87.87,0,0,0-.33.69,1.08,1.08,0,0,0,.2.67.84.84,0,0,0,.68.35.87.87,0,0,0,1-.7.61.61,0,0,0,0-.19Zm0,3.61a1.07,1.07,0,0,0-.69.21.88.88,0,0,0-.34.69,1.16,1.16,0,0,0,.21.67.87.87,0,0,0,.68.35,1.15,1.15,0,0,0,.72-.21.84.84,0,0,0,.34-.68.87.87,0,0,0-.69-1Zm2.67,3.9a1,1,0,0,0-1,.86,1.2,1.2,0,0,0,.21.69.89.89,0,0,0,.68.34,1.21,1.21,0,0,0,.66-.19.85.85,0,0,0,.33-.68,1.22,1.22,0,0,0-.19-.69A1.13,1.13,0,0,0,12.84,28.51ZM16.72,31a1,1,0,0,0-.68.18.86.86,0,0,0-.34.68,1.12,1.12,0,0,0,.21.68.83.83,0,0,0,.68.34,1.11,1.11,0,0,0,.68-.2.86.86,0,0,0,.34-.68,1.12,1.12,0,0,0-.2-.69A1,1,0,0,0,16.72,31Z"/><circle class="cls-20" cx="25.39" cy="26.73" r="0.95"/><circle class="cls-20" cx="27.92" cy="23.18" r="0.95"/><circle class="cls-20" cx="27.99" cy="18.88" r="0.95"/><circle class="cls-20" cx="25.32" cy="15.2" r="0.95"/><path class="cls-20" d="M16.66,10.9a1,1,0,0,0,1-.87.94.94,0,0,0-.86-1h-.1a.92.92,0,0,0-.61.2.88.88,0,0,0-.34.69,1.08,1.08,0,0,0,.19.65A.84.84,0,0,0,16.66,10.9ZM21,28.84V27.2a6.27,6.27,0,0,1,0-12.54V13a7.92,7.92,0,0,0,0,15.83Zm.42-20.53V10a11.05,11.05,0,0,1,0,22.1v1.64a12.69,12.69,0,0,0,0-25.38Z"/></g></svg>