<svg xmlns="http://www.w3.org/2000/svg" viewBox="0 0 42 42"><defs><style>.cls-1,.cls-20{fill:none;}.cls-1{stroke:#000;stroke-miterlimit:10;}.cls-2{font-size:16px;fill:#fff;font-family:ProximaNova-Extrabld, Proxima Nova;}.cls-3{letter-spacing:0em;}.cls-4{letter-spacing:0em;}.cls-5{letter-spacing:0em;}.cls-6{letter-spacing:0em;}.cls-7{letter-spacing:0em;}.cls-8{letter-spacing:-0.01em;}.cls-9{letter-spacing:0em;}.cls-10{letter-spacing:-0.01em;}.cls-11{letter-spacing:0em;}.cls-12{letter-spacing:0em;}.cls-13{letter-spacing:0.02em;}.cls-14{letter-spacing:-0.01em;}.cls-15{letter-spacing:-0.01em;}.cls-16{letter-spacing:0em;}.cls-17{letter-spacing:0em;}.cls-18{letter-spacing:0em;}.cls-19{fill:#0069ff;}.cls-20{stroke:#fff;stroke-width:1.49px;}</style></defs><title>digitalocean-product-icon-standard-droplets</title><g id="Layer_2" data-name="Layer 2"><rect class="cls-1" x="-64" y="-207" width="1280" height="720"/></g><g id="Layer_1" data-name="Layer 1"><text class="cls-2" transform="translate(-14.42 -33.02)"><tspan class="cls-3">C</tspan><tspan class="cls-4" x="11.1" y="0">o</tspan><tspan class="cls-5" x="20.27" y="0">m</tspan><tspan class="cls-6" x="34.22" y="0">p</tspan><tspan class="cls-7" x="43.65" y="0">u</tspan><tspan x="53.15" y="0">te</tspan><tspan class="cls-8" x="0" y="186">S</tspan><tspan x="9.58" y="186">t</tspan><tspan class="cls-9" x="15.34" y="186">o</tspan><tspan class="cls-10" x="24.52" y="186">r</tspan><tspan class="cls-11" x="30.36" y="186">a</tspan><tspan class="cls-9" x="39.14" y="186">g</tspan><tspan x="48.54" y="186">e</tspan><tspan class="cls-12" x="0" y="372">N</tspan><tspan x="11.87" y="372">e</tspan><tspan class="cls-13" x="20.64" y="372">t</tspan><tspan class="cls-14" x="26.66" y="372">w</tspan><tspan class="cls-9" x="39.13" y="372">o</tspan><tspan class="cls-15" x="48.31" y="372">r</tspan><tspan class="cls-16" x="54.15" y="372">k</tspan><tspan class="cls-17" x="62.86" y="372">i</tspan><tspan class="cls-18" x="67.05" y="372">n</tspan><tspan x="76.53" y="372">g</tspan></text><circle class="cls-19" cx="21" cy="21" r="20.79"/><path class="cls-20" d="M21,33.06A10.2,10.2,0,0,1,10.83,23C10.83,14.61,21,8.94,21,8.94s10.17,5.87,10.17,14.15A10.14,10.14,0,0,1,21,33.06Z"/><path class="cls-20" d="M21,26.28a3.37,3.37,0,0,1-3.39-3.39c0-2.61,3.39-5.09,3.39-5.09s3.39,2.42,3.39,5.09A3.37,3.37,0,0,1,21,26.28Z"/></g></svg>