<svg xmlns="http://www.w3.org/2000/svg" viewBox="0 0 42 42"><defs><style>.cls-1,.cls-3{fill:none;}.cls-1{stroke:#000;stroke-miterlimit:10;}.cls-2{fill:#0069ff;}.cls-3{stroke:#fff;stroke-width:1.49px;}</style></defs><title>digitalocean-product-icon-teams</title><g id="Layer_2" data-name="Layer 2"><rect class="cls-1" x="-883" y="-580" width="1280" height="720"/></g><g id="Layer_1" data-name="Layer 1"><circle class="cls-2" cx="21" cy="21" r="20.79"/><path class="cls-3" d="M33.83,23.9a5.13,5.13,0,0,0-4.94-5.29h-.41a5.1,5.1,0,0,0-5.3,4.9v.39"/><circle class="cls-3" cx="28.48" cy="15.86" r="2.7"/><path class="cls-3" d="M18.82,23.9a5.11,5.11,0,0,0-4.92-5.29h-.42a5.1,5.1,0,0,0-5.3,4.91,2.41,2.41,0,0,0,0,.38"/><circle class="cls-3" cx="13.48" cy="15.86" r="2.7"/><path class="cls-3" d="M26.33,28.79a5.1,5.1,0,0,0-4.92-5.29,2.94,2.94,0,0,0-.42,0,5.12,5.12,0,0,0-5.3,4.94,2.67,2.67,0,0,0,0,.4"/><circle class="cls-3" cx="20.99" cy="20.8" r="2.7"/></g></svg>