<svg xmlns="http://www.w3.org/2000/svg" viewBox="0 0 42 42"><defs><style>.cls-1,.cls-3{fill:none;stroke-miterlimit:10;}.cls-1{stroke:#000;}.cls-2{fill:#0069ff;}.cls-3{stroke:#fff;stroke-width:1.49px;}</style></defs><title>digitalocean-product-icon-virtual-private-cloud</title><g id="Layer_2" data-name="Layer 2"><rect class="cls-1" x="-255" y="-580" width="1280" height="720"/></g><g id="Layer_1" data-name="Layer 1"><circle class="cls-2" cx="21" cy="21" r="20.79"/><path class="cls-3" d="M21,29.64a8.13,8.13,0,0,1-8.14-8c0-6.73,8.14-11.31,8.14-11.31S29.14,15,29.14,21.66A8.12,8.12,0,0,1,21,29.64Z"/><path class="cls-3" d="M12.94,22.66c-2.53,2-3.91,3.8-3.42,4.73.84,1.58,6.65.13,13-3.22s10.8-7.35,10-8.93c-.5-.92-2.72-.8-5.75.14"/><path class="cls-3" d="M29.14,22.72c2.48,2,3.83,3.75,3.34,4.67-.84,1.58-6.65.13-13-3.22s-10.8-7.35-10-8.93c.5-.92,2.72-.8,5.76.14"/></g></svg>