<svg xmlns="http://www.w3.org/2000/svg" viewBox="0 0 42 42"><defs><style>.cls-1,.cls-3,.cls-4,.cls-5,.cls-6,.cls-7{fill:none;}.cls-1{stroke:#000;stroke-miterlimit:10;}.cls-2{fill:#0069ff;}.cls-3,.cls-4,.cls-5,.cls-6,.cls-7{stroke:#fff;stroke-width:1.49px;}.cls-3,.cls-4,.cls-5,.cls-6{stroke-linecap:round;}.cls-4{stroke-dasharray:0 3.11;}.cls-5{stroke-dasharray:0 2.94;}.cls-6{stroke-dasharray:0 2.95;}</style></defs><title>digitalocean-product-icon-volumes-block-storage</title><g id="Layer_2" data-name="Layer 2"><rect class="cls-1" x="-255" y="-394" width="1280" height="720"/></g><g id="Layer_1" data-name="Layer 1"><circle class="cls-2" cx="21" cy="21" r="20.79"/><line class="cls-3" x1="20.98" y1="21.2" x2="20.98" y2="21.2"/><line class="cls-4" x1="20.98" y1="18.09" x2="20.98" y2="10.32"/><line class="cls-3" x1="20.98" y1="8.76" x2="20.98" y2="8.76"/><line class="cls-3" x1="10.92" y1="27.22" x2="10.92" y2="27.22"/><line class="cls-5" x1="13.42" y1="25.66" x2="19.68" y2="21.78"/><line class="cls-3" x1="20.93" y1="21" x2="20.93" y2="21"/><line class="cls-6" x1="23.44" y1="22.54" x2="29.72" y2="26.4"/><line class="cls-3" x1="30.98" y1="27.17" x2="30.98" y2="27.17"/><path class="cls-7" d="M21,21V33.44M21,21.2,11,15m20.11,0L21,21.2m-10.1-6.42V27.17l10,6.22L31,27.17V14.73l-10-6.17Z"/></g></svg>